<?xml version="1.0" standalone="no"?>
<!DOCTYPE svg PUBLIC "-//W3C//DTD SVG 20010904//EN"
 "http://www.w3.org/TR/2001/REC-SVG-20010904/DTD/svg10.dtd">
<svg version="1.0" xmlns="http://www.w3.org/2000/svg"
 width="512.000000pt" height="512.000000pt" viewBox="0 0 512.000000 512.000000"
 preserveAspectRatio="xMidYMid meet">

<g transform="translate(0.000000,512.000000) scale(0.100000,-0.100000)"
fill="#fff" stroke="none">
<path d="M710 5110 c-72 -15 -166 -67 -206 -113 -46 -53 -76 -119 -103 -231
-27 -108 -47 -148 -121 -246 -92 -121 -114 -172 -115 -260 0 -60 5 -84 25
-123 31 -62 96 -122 168 -155 48 -23 71 -27 145 -27 48 0 87 -2 87 -5 0 -3 -9
-68 -19 -145 -23 -160 -37 -340 -47 -567 l-6 -158 -152 0 c-130 0 -157 -3
-196 -21 -55 -25 -105 -71 -133 -124 -22 -39 -22 -48 -22 -475 0 -430 0 -436
22 -476 25 -47 105 -122 140 -130 l23 -6 0 -547 0 -548 23 -21 c31 -29 72 -28
102 3 l25 24 0 541 0 540 2204 0 2204 0 4 -176 c3 -171 4 -176 27 -195 30 -25
76 -24 101 1 18 18 20 33 20 194 l0 174 54 31 c60 33 101 81 122 138 18 52 20
835 2 897 -16 52 -109 148 -158 162 l-35 10 -6 134 c-6 122 -29 257 -57 330
-8 20 -2 39 29 102 58 115 80 204 86 346 6 134 -8 259 -36 305 -39 67 -144 92
-356 85 -151 -6 -253 -33 -344 -93 l-54 -36 -61 21 c-211 70 -490 70 -704 0
-57 -19 -64 -19 -86 -5 -14 9 -28 31 -32 48 -10 50 -47 116 -113 204 -78 106
-95 142 -122 249 -42 172 -95 251 -204 305 -156 77 -367 58 -586 -52 l-56 -28
-64 26 c-115 47 -238 66 -409 66 -171 0 -294 -19 -409 -66 l-64 -26 -66 33
c-152 77 -346 112 -471 86z m243 -159 c42 -11 90 -27 107 -36 l32 -16 -44 -37
c-161 -135 -299 -356 -378 -607 -40 -128 -40 -128 -86 -142 -109 -33 -216 4
-260 89 -31 59 -8 127 79 235 76 94 112 164 137 263 28 109 41 139 80 184 74
84 181 105 333 67z m1768 3 c30 -9 66 -25 81 -35 35 -26 73 -106 94 -199 21
-98 59 -177 133 -275 33 -43 59 -80 58 -81 -1 -2 -20 1 -42 7 -22 5 -102 8
-177 7 l-138 -2 -50 102 c-78 161 -167 281 -276 375 l-56 47 47 21 c105 47
235 60 326 33z m-876 -24 c114 -17 185 -38 280 -84 181 -87 320 -229 416 -423
l50 -102 -20 -38 c-11 -23 -24 -81 -31 -141 -20 -174 10 -353 86 -504 l34 -68
-26 -97 c-16 -62 -29 -152 -36 -245 l-12 -148 -959 0 -959 0 6 158 c27 616
106 992 269 1268 64 109 211 261 307 317 158 91 399 135 595 107z m1263 -731
l63 -25 -68 -44 c-89 -58 -257 -226 -313 -314 -39 -61 -45 -66 -56 -51 -8 10
-21 52 -31 94 -20 86 -23 287 -5 333 14 33 34 37 212 34 116 -2 144 -6 198
-27z m1675 12 c8 -8 12 -57 11 -169 0 -140 -3 -165 -25 -232 l-25 -74 -27 47
c-72 122 -210 264 -346 354 l-54 36 26 14 c61 31 141 43 285 40 96 -2 146 -7
155 -16z m-868 -53 c33 -5 93 -20 133 -34 412 -137 692 -524 692 -955 l0 -89
-997 2 -998 3 3 110 c9 277 100 486 301 685 128 127 230 191 390 244 159 53
302 63 476 34z m1001 -1262 l34 -34 0 -402 0 -402 -34 -34 -34 -34 -2326 0
-2326 0 -32 29 -33 29 -3 399 c-2 384 -2 399 18 431 11 18 30 37 43 42 13 5
988 9 2340 9 l2319 1 34 -34z"/>
<path d="M1120 4130 c-17 -17 -20 -33 -20 -100 0 -94 16 -120 74 -120 53 0 76
36 76 120 0 53 -4 73 -21 94 -26 33 -79 36 -109 6z"/>
<path d="M2211 4124 c-30 -38 -30 -150 0 -188 26 -33 79 -36 109 -6 17 17 20
33 20 100 0 67 -3 83 -20 100 -30 30 -83 27 -109 -6z"/>
<path d="M1550 4010 c-29 -54 44 -95 170 -95 126 0 199 41 170 95 -10 19 -20
20 -170 20 -150 0 -160 -1 -170 -20z"/>
<path d="M1439 3860 c-9 -5 -22 -23 -29 -39 -16 -40 2 -76 58 -115 37 -26 55
-31 116 -34 54 -3 81 0 105 12 29 15 33 15 62 0 24 -12 51 -15 105 -12 61 3
79 8 116 34 56 39 74 75 58 115 -23 54 -67 63 -120 24 -20 -15 -47 -25 -67
-25 -20 0 -50 11 -71 25 -20 14 -44 25 -52 25 -8 0 -32 -11 -52 -25 -21 -14
-51 -25 -71 -25 -20 0 -47 10 -67 25 -35 26 -64 31 -91 15z"/>
<path d="M3185 3685 c-22 -21 -25 -33 -25 -95 0 -62 3 -74 25 -95 13 -14 36
-25 50 -25 14 0 37 11 50 25 22 21 25 33 25 95 0 62 -3 74 -25 95 -13 14 -36
25 -50 25 -14 0 -37 -11 -50 -25z"/>
<path d="M4202 3690 c-19 -18 -22 -31 -22 -100 0 -67 3 -83 20 -100 38 -38
100 -22 119 31 23 65 7 160 -29 179 -30 16 -64 12 -88 -10z"/>
<path d="M3590 3575 c-20 -24 -4 -62 32 -74 61 -22 150 -25 211 -7 63 18 85
43 67 76 -10 19 -21 20 -154 20 -115 0 -146 -3 -156 -15z"/>
<path d="M3493 3440 c-32 -13 -55 -53 -47 -84 8 -33 62 -80 109 -96 24 -8 59
-10 99 -6 75 9 94 9 178 0 80 -8 125 5 173 51 84 78 1 183 -93 117 -38 -28
-76 -28 -114 -1 -38 27 -83 27 -112 0 -28 -26 -76 -27 -107 -2 -32 25 -59 31
-86 21z"/>
<path d="M573 2815 l-23 -16 0 -328 c0 -263 3 -331 13 -340 23 -19 75 -24 107
-11 l30 12 0 118 0 117 99 5 c84 4 106 9 144 31 25 15 56 44 69 64 20 33 23
51 23 134 0 87 -2 99 -28 137 -47 72 -88 86 -262 90 -126 3 -154 1 -172 -13z
m297 -152 c18 -23 21 -37 18 -82 -7 -75 -28 -91 -119 -91 l-69 0 0 100 0 100
74 0 c69 0 76 -2 96 -27z"/>
<path d="M1132 2814 c-22 -15 -22 -15 -22 -344 0 -329 0 -329 22 -344 18 -13
57 -16 215 -16 213 0 223 3 223 64 0 61 -10 65 -165 68 l-140 3 -3 82 -3 82
88 3 c85 3 88 4 101 31 11 22 11 32 0 55 -13 26 -16 27 -101 30 l-87 3 0 79 0
80 133 0 c156 0 177 8 177 69 0 68 -11 71 -226 71 -155 0 -194 -3 -212 -16z"/>
<path d="M1616 2817 c-23 -16 -27 -87 -7 -111 10 -12 32 -16 92 -16 l79 0 0
-279 0 -279 30 -12 c32 -13 84 -8 107 11 10 9 13 68 13 285 l0 274 74 0 c66 0
77 3 90 22 9 12 16 34 16 48 0 14 -7 36 -16 48 -15 22 -19 22 -238 22 -169 0
-227 -3 -240 -13z"/>
<path d="M2489 2817 c-111 -42 -160 -136 -128 -250 15 -54 65 -99 177 -157
103 -53 129 -80 119 -123 -15 -57 -106 -63 -190 -11 -67 42 -98 40 -122 -6
-23 -44 -19 -59 24 -100 98 -94 301 -90 393 7 36 38 48 73 48 144 0 107 -43
162 -180 229 -128 63 -150 90 -110 130 26 26 106 27 173 3 55 -20 74 -13 96
32 12 25 12 32 0 54 -8 14 -28 33 -44 41 -41 20 -209 24 -256 7z"/>
<path d="M2920 2817 l-25 -13 -3 -329 c-2 -326 -2 -330 19 -347 26 -22 77 -23
107 -2 21 14 22 22 22 155 l0 139 100 0 100 0 0 -139 c0 -133 1 -141 22 -155
12 -9 36 -16 53 -16 17 0 41 7 53 16 22 15 22 16 22 343 0 370 3 356 -75 356
-71 0 -75 -9 -75 -156 l0 -129 -100 0 -100 0 0 129 c0 123 -1 131 -22 145 -27
19 -64 20 -98 3z"/>
<path d="M3655 2821 c-76 -20 -128 -66 -150 -133 -14 -39 -16 -84 -13 -240 3
-220 12 -250 85 -301 75 -54 231 -54 306 0 73 51 82 81 85 300 2 116 -1 207
-8 232 -13 51 -51 96 -102 122 -44 22 -154 33 -203 20z m136 -150 c23 -18 24
-25 27 -172 4 -173 -1 -212 -29 -240 -26 -26 -92 -26 -118 0 -28 28 -33 70
-29 241 3 145 4 153 27 171 30 25 92 25 122 0z"/>
<path d="M4093 2815 l-23 -16 0 -329 c0 -329 0 -329 22 -344 12 -9 36 -16 53
-16 17 0 41 7 53 16 21 14 22 23 22 130 l0 114 73 0 c180 0 266 75 267 231 0
94 -36 163 -105 199 -45 23 -62 25 -195 28 -121 3 -149 1 -167 -13z m284 -140
c43 -30 38 -151 -7 -175 -10 -5 -48 -10 -84 -10 l-66 0 0 100 0 100 68 0 c44
0 75 -5 89 -15z"/>
<path d="M1635 1431 c-85 -21 -168 -89 -213 -174 l-27 -52 -3 -527 -3 -528
-519 0 -520 0 0 168 c0 92 -3 177 -6 190 -7 23 -50 52 -79 52 -9 0 -27 -11
-40 -25 l-25 -24 0 -235 0 -235 26 -20 27 -21 2307 0 2307 0 21 23 22 23 0
606 0 607 -26 20 c-35 27 -57 26 -91 -3 l-28 -24 -3 -551 -2 -551 -500 0 -499
0 -3 523 -3 522 -28 56 c-32 66 -99 132 -165 162 l-47 22 -925 2 c-509 0 -938
-2 -955 -6z m845 -711 l0 -570 -470 0 -470 0 0 499 c0 329 4 509 11 528 14 37
57 82 94 99 23 10 119 13 433 14 l402 0 0 -570z m1028 551 c46 -23 67 -46 87
-94 13 -31 15 -109 15 -532 l0 -495 -490 0 -490 0 0 570 0 570 420 0 c393 0
423 -1 458 -19z"/>
</g>
</svg>
